<svg width="78" height="64" viewBox="0 0 78 64" fill="none" xmlns="http://www.w3.org/2000/svg" xmlns:xlink="http://www.w3.org/1999/xlink">
<path d="M76.562,31.025C76.562,22.797 73.293,14.906 67.475,9.087C61.656,3.269 53.765,0 45.536,0C37.308,0 29.417,3.269 23.598,9.087C17.78,14.906 14.511,22.797 14.511,31.025L24.207,31.025C27.419,31.025 29.925,28.333 31.102,25.343C31.874,23.381 33.047,21.577 34.567,20.056C37.476,17.147 41.422,15.513 45.536,15.513C49.651,15.513 53.596,17.147 56.506,20.056C59.415,22.965 61.049,26.911 61.049,31.025L76.562,31.025Z" fill="url(#pf_0_1_7351)"/>
<path d="M58.689,42.9C60.248,39.136 61.051,35.102 61.051,31.027L76.562,31.027C76.562,48.162 62.671,62.053 45.536,62.053C42.853,62.053 40.249,61.712 37.766,61.072C39.171,60.71 40.552,60.249 41.898,59.691C45.662,58.132 49.083,55.847 51.964,52.966C54.845,50.085 57.13,46.664 58.689,42.9Z" fill="#4392F9"/>
<path d="M-1,31.023C-1,35.098 -0.198,39.132 1.362,42.896C2.921,46.661 5.206,50.081 8.087,52.962C10.968,55.843 14.388,58.128 18.152,59.687C21.917,61.246 25.951,62.049 30.025,62.049C34.1,62.049 38.134,61.246 41.898,59.687C45.662,58.128 49.083,55.843 51.964,52.962C54.845,50.081 57.13,46.661 58.689,42.896C60.248,39.132 61.051,35.098 61.051,31.023L51.355,31.023C48.142,31.023 45.637,33.716 44.46,36.705C44.427,36.79 44.392,36.875 44.357,36.96C43.578,38.842 42.435,40.552 40.994,41.993C39.554,43.433 37.844,44.576 35.962,45.355C34.08,46.135 32.063,46.536 30.025,46.536C27.988,46.536 25.971,46.135 24.089,45.355C22.207,44.576 20.497,43.433 19.056,41.993C17.616,40.552 16.473,38.842 15.694,36.96C14.914,35.078 14.513,33.061 14.513,31.023L-1,31.023Z" fill="url(#pf_0_1_7353)"/>
<path d="M-0.997,31.025C-0.997,13.89 12.894,0 30.028,0C32.711,0 35.314,0.34 37.797,0.981C32.47,2.353 27.555,5.131 23.598,9.087C17.78,14.905 14.511,22.797 14.511,31.025L-0.997,31.025Z" fill="#F83758"/>
<defs>
<linearGradient id="pf_0_1_7351" x1="76.562" y1="15.513" x2="14.511" y2="15.513" gradientUnits="userSpaceOnUse">
<stop stop-color="#CFE2FC"/>
<stop offset="1" stop-color="#4392F9"/>
</linearGradient>
<linearGradient id="pf_0_1_7353" x1="-1" y1="46.536" x2="61.051" y2="46.536" gradientUnits="userSpaceOnUse">
<stop stop-color="#F8BCC6"/>
<stop offset="1" stop-color="#F83758"/>
</linearGradient>
</defs>
</svg>
