<svg width="32" height="32" viewBox="0 0 32 32" fill="none" xmlns="http://www.w3.org/2000/svg" xmlns:xlink="http://www.w3.org/1999/xlink">
<path d="M9.75,25L16,20.237L22.25,25L19.91,17.263L26.144,12.834L18.506,12.834L16,4.712L13.494,12.834L5.856,12.834L12.09,17.263L9.75,25ZM16.003,31.443C13.813,31.443 11.755,31.027 9.828,30.196C7.901,29.365 6.225,28.237 4.799,26.812C3.374,25.387 2.245,23.712 1.414,21.786C0.582,19.86 0.167,17.802 0.167,15.612C0.167,13.422 0.582,11.364 1.413,9.437C2.244,7.51 3.372,5.834 4.797,4.408C6.222,2.983 7.897,1.855 9.823,1.023C11.749,0.192 13.807,-0.224 15.997,-0.224C18.187,-0.224 20.246,0.191 22.172,1.023C24.099,1.854 25.776,2.982 27.201,4.406C28.626,5.831 29.755,7.507 30.586,9.433C31.418,11.359 31.833,13.417 31.833,15.606C31.833,17.796 31.418,19.855 30.587,21.782C29.756,23.709 28.628,25.385 27.203,26.81C25.778,28.235 24.103,29.364 22.177,30.195C20.251,31.027 18.193,31.443 16.003,31.443Z" fill="#029C42"/>
</svg>
