<svg width="48" height="50" viewBox="0 0 48 50" fill="none" xmlns="http://www.w3.org/2000/svg" xmlns:xlink="http://www.w3.org/1999/xlink">
<path d="M24,49C10.769,49 0,38.231 0,25C0,11.769 10.769,1 24,1C37.231,1 48,11.769 48,25C48,38.231 37.231,49 24,49ZM24,3.719C12.264,3.719 2.719,13.264 2.719,25C2.719,36.736 12.264,46.281 24,46.281C35.736,46.281 45.281,36.736 45.281,25C45.281,13.264 35.736,3.719 24,3.719Z" fill="#7D23E0"/>
<path d="M27.312,32.98C26.964,32.98 26.618,32.845 26.353,32.579L19.732,25.958C19.201,25.427 19.201,24.564 19.732,24.036L26.353,17.415C26.884,16.884 27.747,16.884 28.276,17.415C28.807,17.946 28.807,18.809 28.276,19.338L22.619,24.994L28.276,30.651C28.807,31.182 28.807,32.045 28.276,32.574C28.01,32.839 27.665,32.975 27.317,32.975L27.312,32.98Z" fill="#7D23E0"/>
</svg>
