<svg width="46" height="48" viewBox="0 0 46 48" fill="none" xmlns="http://www.w3.org/2000/svg" xmlns:xlink="http://www.w3.org/1999/xlink">
<path d="M5.538,18L4.281,16.445C3.811,16.825 3.538,17.396 3.538,18L5.538,18ZM22.846,4L24.104,2.445C23.37,1.852 22.322,1.852 21.588,2.445L22.846,4ZM40.154,18L42.154,18C42.154,17.396 41.881,16.825 41.412,16.445L40.154,18ZM5.538,40L3.538,40L5.538,40ZM6.796,19.555L24.104,5.555L21.588,2.445L4.281,16.445L6.796,19.555ZM21.588,5.555L38.896,19.555L41.412,16.445L24.104,2.445L21.588,5.555ZM38.154,18L38.154,40L42.154,40L42.154,18L38.154,18ZM38.154,40C38.154,40.555 37.941,41.073 37.586,41.442L40.469,44.215C41.556,43.084 42.154,41.567 42.154,40L38.154,40ZM37.586,41.442C37.233,41.809 36.771,42 36.308,42L36.308,46C37.884,46 39.379,45.348 40.469,44.215L37.586,41.442ZM36.308,42L9.385,42L9.385,46L36.308,46L36.308,42ZM9.385,42C8.921,42 8.459,41.809 8.107,41.442L5.223,44.215C6.313,45.348 7.808,46 9.385,46L9.385,42ZM8.107,41.442C7.751,41.073 7.538,40.555 7.538,40L3.538,40C3.538,41.567 4.136,43.084 5.223,44.215L8.107,41.442ZM7.538,40L7.538,18L3.538,18L3.538,40L7.538,40Z" fill="#EB3030"/>
<path d="M15.077,44C15.077,45.105 15.972,46 17.077,46C18.181,46 19.077,45.105 19.077,44L15.077,44ZM17.077,24L17.077,22C15.972,22 15.077,22.895 15.077,24L17.077,24ZM28.615,24L30.615,24C30.615,22.895 29.72,22 28.615,22L28.615,24ZM26.615,44C26.615,45.105 27.511,46 28.615,46C29.72,46 30.615,45.105 30.615,44L26.615,44ZM19.077,44L19.077,24L15.077,24L15.077,44L19.077,44ZM17.077,26L28.615,26L28.615,22L17.077,22L17.077,26ZM26.615,24L26.615,44L30.615,44L30.615,24L26.615,24Z" fill="#EB3030"/>
</svg>
