<svg width="48" height="48" viewBox="0 0 48 48" fill="none" xmlns="http://www.w3.org/2000/svg" xmlns:xlink="http://www.w3.org/1999/xlink">
<path d="M27.231,24C27.231,26.284 25.47,28 23.462,28L23.462,32C27.826,32 31.231,28.344 31.231,24L27.231,24ZM23.462,28C21.453,28 19.692,26.284 19.692,24L15.692,24C15.692,28.344 19.098,32 23.462,32L23.462,28ZM19.692,24C19.692,21.716 21.453,20 23.462,20L23.462,16C19.098,16 15.692,19.656 15.692,24L19.692,24ZM23.462,20C25.47,20 27.231,21.716 27.231,24L31.231,24C31.231,19.656 27.826,16 23.462,16L23.462,20Z" fill="#000000"/>
<path d="M37.692,30L39.534,30.781L39.542,30.762L37.692,30ZM38.327,33.64L36.87,35.01L36.885,35.026L38.327,33.64ZM38.442,33.76L37.001,35.146L37.002,35.147L38.442,33.76ZM38.442,39.42L37.002,38.033L37,38.035L38.442,39.42ZM34.248,40.288L35.04,38.452L34.248,40.288ZM33,39.42L34.443,38.035L34.442,38.034L33,39.42ZM32.885,39.3L34.326,37.914L34.311,37.898L32.885,39.3ZM29.385,38.64L30.199,40.467L30.219,40.458L29.385,38.64ZM27.462,41.66L25.462,41.652L25.462,41.66L27.462,41.66ZM19.769,41.82L21.769,41.82C21.769,41.805 21.769,41.79 21.769,41.775L19.769,41.82ZM17.692,38.8L16.858,40.618C16.897,40.636 16.937,40.653 16.978,40.668L17.692,38.8ZM14.192,39.46L12.766,38.058L12.751,38.074L14.192,39.46ZM14.077,39.58L12.635,38.194L12.635,38.195L14.077,39.58ZM8.635,39.58L10.077,38.195L10.076,38.193L8.635,39.58ZM7.507,36.75L9.507,36.75L7.507,36.75ZM8.635,33.92L10.076,35.307L10.076,35.306L8.635,33.92ZM8.75,33.8L10.192,35.186L10.207,35.17L8.75,33.8ZM9.385,30.16L7.535,30.922L7.544,30.941L9.385,30.16ZM6.481,28.16L6.489,26.16L6.481,26.16L6.481,28.16ZM2.308,24.16L0.308,24.16L2.308,24.16ZM6.154,20.16L6.154,22.16L6.154,20.16ZM6.327,20.16L6.327,22.16C6.343,22.16 6.359,22.16 6.376,22.159L6.327,20.16ZM9.231,18L7.39,17.219C7.374,17.256 7.359,17.295 7.345,17.333L9.231,18ZM8.596,14.36L10.053,12.99L10.038,12.974L8.596,14.36ZM8.481,14.24L9.922,12.854L9.922,12.853L8.481,14.24ZM8.481,8.58L9.922,9.967L9.923,9.965L8.481,8.58ZM13.923,8.58L12.481,9.965L12.481,9.966L13.923,8.58ZM14.038,8.7L12.597,10.086L12.612,10.102L14.038,8.7ZM17.539,9.36L17.539,7.36C17.251,7.36 16.966,7.422 16.704,7.542L17.539,9.36ZM17.692,9.36L17.692,11.36C17.973,11.36 18.25,11.301 18.507,11.187L17.692,9.36ZM19.615,6.34L21.615,6.348L21.615,6.34L19.615,6.34ZM23.462,2L23.462,0L23.462,2ZM27.308,6.18L25.308,6.18L25.308,6.188L27.308,6.18ZM29.231,9.2L30.065,7.382L30.045,7.373L29.231,9.2ZM32.731,8.54L34.157,9.942L34.173,9.926L32.731,8.54ZM32.846,8.42L34.288,9.806L34.289,9.805L32.846,8.42ZM34.095,7.552L34.886,9.388L34.095,7.552ZM35.567,7.247L35.567,9.247L35.567,7.247ZM38.289,8.42L36.846,9.805L36.848,9.807L38.289,8.42ZM38.289,14.08L36.848,12.693L36.847,12.694L38.289,14.08ZM38.173,14.2L36.731,12.814L36.716,12.83L38.173,14.2ZM37.539,17.84L39.539,17.84C39.539,17.572 39.485,17.306 39.38,17.059L37.539,17.84ZM37.539,18L35.539,18C35.539,18.261 35.59,18.52 35.689,18.762L37.539,18ZM40.442,20L40.434,22L40.442,22L40.442,20ZM40.596,28L40.596,26L40.588,26L40.596,28ZM35.851,29.219C35.444,30.178 35.324,31.238 35.503,32.265L39.443,31.578C39.396,31.306 39.429,31.028 39.533,30.781L35.851,29.219ZM35.503,32.265C35.682,33.291 36.154,34.249 36.87,35.01L39.784,32.27C39.613,32.088 39.491,31.849 39.443,31.578L35.503,32.265ZM36.885,35.026L37.001,35.146L39.884,32.374L39.769,32.254L36.885,35.026ZM37.002,35.147C37.177,35.329 37.32,35.55 37.419,35.799L41.135,34.318C40.847,33.595 40.423,32.934 39.883,32.373L37.002,35.147ZM37.419,35.799C37.519,36.047 37.57,36.317 37.57,36.59L41.57,36.59C41.57,35.812 41.423,35.04 41.135,34.318L37.419,35.799ZM37.57,36.59C37.57,36.863 37.519,37.133 37.419,37.381L41.135,38.862C41.423,38.14 41.57,37.368 41.57,36.59L37.57,36.59ZM37.419,37.381C37.32,37.63 37.177,37.851 37.002,38.033L39.883,40.807C40.423,40.246 40.847,39.585 41.135,38.862L37.419,37.381ZM37,38.035C36.825,38.217 36.621,38.357 36.402,38.452L37.986,42.125C38.701,41.816 39.346,41.367 39.885,40.805L37,38.035ZM36.402,38.452C36.184,38.546 35.953,38.593 35.721,38.593L35.721,42.593C36.501,42.593 37.27,42.433 37.986,42.125L36.402,38.452ZM35.721,38.593C35.49,38.593 35.259,38.546 35.04,38.452L33.457,42.125C34.172,42.433 34.942,42.593 35.721,42.593L35.721,38.593ZM35.04,38.452C34.822,38.357 34.618,38.217 34.443,38.035L31.558,40.805C32.097,41.367 32.741,41.816 33.457,42.125L35.04,38.452ZM34.442,38.034L34.326,37.914L31.443,40.686L31.558,40.806L34.442,38.034ZM34.311,37.898C33.577,37.152 32.635,36.641 31.603,36.447L30.861,40.377C31.076,40.418 31.286,40.526 31.458,40.702L34.311,37.898ZM31.603,36.447C30.569,36.252 29.505,36.384 28.55,36.822L30.219,40.458C30.425,40.363 30.647,40.337 30.861,40.377L31.603,36.447ZM28.57,36.813C27.635,37.23 26.85,37.917 26.302,38.777L29.676,40.925C29.812,40.712 29.997,40.557 30.199,40.467L28.57,36.813ZM26.302,38.777C25.755,39.636 25.466,40.635 25.462,41.652L29.462,41.668C29.463,41.397 29.54,41.139 29.676,40.925L26.302,38.777ZM25.462,41.66L25.462,42L29.462,42L29.462,41.66L25.462,41.66ZM25.462,42C25.462,42.555 25.249,43.073 24.893,43.442L27.777,46.215C28.864,45.084 29.462,43.567 29.462,42L25.462,42ZM24.893,43.442C24.541,43.809 24.079,44 23.615,44L23.615,48C25.192,48 26.687,47.348 27.777,46.215L24.893,43.442ZM23.615,44C23.152,44 22.69,43.809 22.338,43.442L19.454,46.215C20.544,47.348 22.039,48 23.615,48L23.615,44ZM22.338,43.442C21.982,43.073 21.769,42.555 21.769,42L17.769,42C17.769,43.567 18.367,45.084 19.454,46.215L22.338,43.442ZM21.769,42L21.769,41.82L17.769,41.82L17.769,42L21.769,42ZM21.769,41.775C21.745,40.729 21.42,39.708 20.826,38.844L17.53,41.111C17.677,41.324 17.764,41.587 17.77,41.865L21.769,41.775ZM20.826,38.844C20.231,37.979 19.391,37.309 18.407,36.932L16.978,40.668C17.188,40.749 17.384,40.898 17.53,41.111L20.826,38.844ZM18.527,36.982C17.572,36.544 16.508,36.412 15.474,36.607L16.216,40.537C16.43,40.497 16.652,40.523 16.858,40.618L18.527,36.982ZM15.474,36.607C14.442,36.801 13.5,37.312 12.766,38.058L15.619,40.862C15.791,40.686 16.001,40.578 16.216,40.537L15.474,36.607ZM12.751,38.074L12.635,38.194L15.519,40.966L15.634,40.846L12.751,38.074ZM12.635,38.195C12.459,38.377 12.255,38.517 12.037,38.612L13.62,42.285C14.336,41.976 14.98,41.527 15.519,40.965L12.635,38.195ZM12.037,38.612C11.818,38.706 11.587,38.753 11.356,38.753L11.356,42.753C12.135,42.753 12.905,42.593 13.62,42.285L12.037,38.612ZM11.356,38.753C11.124,38.753 10.893,38.706 10.675,38.612L9.091,42.285C9.807,42.593 10.576,42.753 11.356,42.753L11.356,38.753ZM10.675,38.612C10.456,38.517 10.252,38.377 10.077,38.195L7.192,40.965C7.731,41.527 8.376,41.976 9.091,42.285L10.675,38.612ZM10.076,38.193C9.9,38.011 9.757,37.79 9.658,37.541L5.942,39.022C6.23,39.745 6.654,40.406 7.194,40.967L10.076,38.193ZM9.658,37.541C9.559,37.293 9.507,37.023 9.507,36.75L5.507,36.75C5.507,37.528 5.654,38.3 5.942,39.022L9.658,37.541ZM9.507,36.75C9.507,36.477 9.559,36.207 9.658,35.959L5.942,34.478C5.654,35.2 5.507,35.972 5.507,36.75L9.507,36.75ZM9.658,35.959C9.757,35.71 9.9,35.489 10.076,35.307L7.194,32.533C6.654,33.094 6.23,33.755 5.942,34.478L9.658,35.959ZM10.076,35.306L10.192,35.186L7.308,32.414L7.193,32.534L10.076,35.306ZM10.207,35.17C10.923,34.409 11.395,33.451 11.574,32.425L7.634,31.738C7.586,32.009 7.464,32.248 7.293,32.43L10.207,35.17ZM11.574,32.425C11.753,31.398 11.633,30.338 11.226,29.379L7.544,30.941C7.648,31.188 7.681,31.466 7.634,31.738L11.574,32.425ZM11.234,29.398C10.846,28.457 10.197,27.641 9.355,27.061L7.086,30.356C7.276,30.487 7.436,30.68 7.536,30.922L11.234,29.398ZM9.355,27.061C8.512,26.481 7.516,26.164 6.489,26.16L6.473,30.16C6.684,30.161 6.897,30.226 7.086,30.356L9.355,27.061ZM6.481,26.16L6.154,26.16L6.154,30.16L6.481,30.16L6.481,26.16ZM6.154,26.16C5.69,26.16 5.229,25.969 4.876,25.602L1.993,28.375C3.082,29.508 4.578,30.16 6.154,30.16L6.154,26.16ZM4.876,25.602C4.521,25.233 4.308,24.715 4.308,24.16L0.308,24.16C0.308,25.727 0.905,27.244 1.993,28.375L4.876,25.602ZM4.308,24.16C4.308,23.605 4.521,23.087 4.876,22.718L1.993,19.945C0.905,21.076 0.308,22.593 0.308,24.16L4.308,24.16ZM4.876,22.718C5.229,22.351 5.69,22.16 6.154,22.16L6.154,18.16C4.578,18.16 3.082,18.812 1.993,19.945L4.876,22.718ZM6.154,22.16L6.327,22.16L6.327,18.16L6.154,18.16L6.154,22.16ZM6.376,22.159C7.431,22.134 8.448,21.778 9.292,21.15L6.905,17.94C6.714,18.082 6.496,18.155 6.278,18.161L6.376,22.159ZM9.292,21.15C10.136,20.522 10.767,19.654 11.116,18.667L7.345,17.333C7.255,17.589 7.097,17.797 6.905,17.94L9.292,21.15ZM11.072,18.781C11.479,17.822 11.599,16.762 11.42,15.735L7.48,16.422C7.527,16.694 7.494,16.972 7.39,17.219L11.072,18.781ZM11.42,15.735C11.241,14.709 10.769,13.751 10.053,12.99L7.139,15.73C7.31,15.912 7.433,16.151 7.48,16.422L11.42,15.735ZM10.038,12.974L9.922,12.854L7.039,15.626L7.155,15.746L10.038,12.974ZM9.922,12.853C9.746,12.671 9.603,12.45 9.504,12.201L5.788,13.682C6.076,14.405 6.5,15.066 7.04,15.627L9.922,12.853ZM9.504,12.201C9.405,11.953 9.353,11.683 9.353,11.41L5.353,11.41C5.353,12.188 5.5,12.96 5.788,13.682L9.504,12.201ZM9.353,11.41C9.353,11.137 9.405,10.867 9.504,10.619L5.788,9.138C5.5,9.86 5.353,10.632 5.353,11.41L9.353,11.41ZM9.504,10.619C9.603,10.37 9.746,10.149 9.922,9.967L7.04,7.193C6.5,7.754 6.076,8.415 5.788,9.138L9.504,10.619ZM9.923,9.965C10.098,9.783 10.302,9.643 10.521,9.548L8.937,5.875C8.222,6.184 7.578,6.633 7.038,7.195L9.923,9.965ZM10.521,9.548C10.739,9.454 10.97,9.407 11.202,9.407L11.202,5.407C10.423,5.407 9.653,5.567 8.937,5.875L10.521,9.548ZM11.202,9.407C11.433,9.407 11.665,9.454 11.883,9.548L13.467,5.875C12.751,5.567 11.981,5.407 11.202,5.407L11.202,9.407ZM11.883,9.548C12.102,9.643 12.305,9.783 12.481,9.965L15.366,7.195C14.826,6.633 14.182,6.184 13.467,5.875L11.883,9.548ZM12.481,9.966L12.597,10.086L15.48,7.314L15.365,7.194L12.481,9.966ZM12.612,10.102C13.346,10.848 14.288,11.359 15.321,11.553L16.062,7.623C15.847,7.582 15.637,7.474 15.465,7.298L12.612,10.102ZM15.321,11.553C16.354,11.748 17.418,11.616 18.373,11.178L16.704,7.542C16.499,7.637 16.276,7.663 16.062,7.623L15.321,11.553ZM17.539,11.36L17.692,11.36L17.692,7.36L17.539,7.36L17.539,11.36ZM18.507,11.187C19.442,10.77 20.227,10.083 20.775,9.223L17.401,7.075C17.265,7.288 17.08,7.443 16.878,7.533L18.507,11.187ZM20.775,9.223C21.322,8.364 21.612,7.365 21.615,6.348L17.615,6.332C17.614,6.603 17.537,6.861 17.401,7.075L20.775,9.223ZM21.615,6.34L21.615,6L17.615,6L17.615,6.34L21.615,6.34ZM21.615,6C21.615,5.445 21.828,4.927 22.184,4.558L19.3,1.785C18.213,2.916 17.615,4.433 17.615,6L21.615,6ZM22.184,4.558C22.536,4.191 22.998,4 23.462,4L23.462,0C21.885,0 20.39,0.652 19.3,1.785L22.184,4.558ZM23.462,4C23.925,4 24.387,4.191 24.74,4.558L27.623,1.785C26.533,0.652 25.038,0 23.462,0L23.462,4ZM24.74,4.558C25.095,4.927 25.308,5.445 25.308,6L29.308,6C29.308,4.433 28.71,2.916 27.623,1.785L24.74,4.558ZM25.308,6L25.308,6.18L29.308,6.18L29.308,6L25.308,6ZM25.308,6.188C25.312,7.205 25.601,8.204 26.148,9.063L29.522,6.915C29.386,6.701 29.309,6.443 29.308,6.172L25.308,6.188ZM26.148,9.063C26.696,9.923 27.481,10.61 28.417,11.027L30.045,7.373C29.843,7.283 29.658,7.128 29.522,6.915L26.148,9.063ZM28.397,11.018C29.351,11.456 30.415,11.588 31.449,11.393L30.708,7.463C30.493,7.503 30.271,7.477 30.065,7.382L28.397,11.018ZM31.449,11.393C32.482,11.199 33.423,10.688 34.157,9.942L31.305,7.138C31.132,7.314 30.922,7.422 30.708,7.463L31.449,11.393ZM34.173,9.926L34.288,9.806L31.405,7.034L31.289,7.154L34.173,9.926ZM34.289,9.805C34.464,9.623 34.668,9.483 34.886,9.388L33.303,5.715C32.588,6.024 31.943,6.473 31.404,7.035L34.289,9.805ZM34.886,9.388C35.105,9.294 35.336,9.247 35.567,9.247L35.567,5.247C34.788,5.247 34.018,5.407 33.303,5.715L34.886,9.388ZM35.567,9.247C35.799,9.247 36.03,9.294 36.248,9.388L37.832,5.715C37.117,5.407 36.347,5.247 35.567,5.247L35.567,9.247ZM36.248,9.388C36.467,9.483 36.671,9.623 36.846,9.805L39.731,7.035C39.192,6.473 38.547,6.024 37.832,5.715L36.248,9.388ZM36.848,9.807C37.023,9.989 37.166,10.21 37.266,10.459L40.981,8.978C40.693,8.255 40.269,7.594 39.729,7.033L36.848,9.807ZM37.266,10.459C37.365,10.707 37.417,10.977 37.417,11.25L41.417,11.25C41.417,10.472 41.269,9.7 40.981,8.978L37.266,10.459ZM37.417,11.25C37.417,11.523 37.365,11.793 37.266,12.041L40.981,13.522C41.269,12.8 41.417,12.028 41.417,11.25L37.417,11.25ZM37.266,12.041C37.166,12.29 37.023,12.511 36.848,12.693L39.729,15.467C40.269,14.906 40.693,14.245 40.981,13.522L37.266,12.041ZM36.847,12.694L36.732,12.814L39.615,15.586L39.73,15.466L36.847,12.694ZM36.716,12.83C36,13.591 35.528,14.549 35.349,15.575L39.29,16.262C39.337,15.991 39.459,15.752 39.63,15.57L36.716,12.83ZM35.349,15.575C35.17,16.602 35.29,17.662 35.697,18.621L39.38,17.059C39.275,16.812 39.242,16.534 39.29,16.262L35.349,15.575ZM35.539,17.84L35.539,18L39.539,18L39.539,17.84L35.539,17.84ZM35.689,18.762C36.077,19.703 36.727,20.519 37.569,21.099L39.838,17.804C39.648,17.673 39.487,17.48 39.388,17.238L35.689,18.762ZM37.569,21.099C38.412,21.679 39.408,21.996 40.434,22L40.451,18C40.24,17.999 40.026,17.934 39.838,17.804L37.569,21.099ZM40.442,22L40.769,22L40.769,18L40.442,18L40.442,22ZM40.769,22C41.233,22 41.694,22.191 42.047,22.558L44.931,19.785C43.841,18.652 42.346,18 40.769,18L40.769,22ZM42.047,22.558C42.403,22.927 42.615,23.445 42.615,24L46.615,24C46.615,22.433 46.018,20.916 44.931,19.785L42.047,22.558ZM42.615,24C42.615,24.555 42.403,25.073 42.047,25.442L44.931,28.215C46.018,27.084 46.615,25.567 46.615,24L42.615,24ZM42.047,25.442C41.694,25.809 41.233,26 40.769,26L40.769,30C42.346,30 43.841,29.348 44.931,28.215L42.047,25.442ZM40.769,26L40.596,26L40.596,30L40.769,30L40.769,26ZM40.588,26C39.562,26.004 38.565,26.321 37.722,26.901L39.991,30.196C40.18,30.066 40.393,30.001 40.605,30L40.588,26ZM37.722,26.901C36.881,27.481 36.231,28.297 35.843,29.238L39.542,30.762C39.641,30.52 39.801,30.327 39.991,30.196L37.722,26.901Z" fill="#000000"/>
</svg>
