<svg width="48" height="48" viewBox="0 0 48 48" fill="none" xmlns="http://www.w3.org/2000/svg" xmlns:xlink="http://www.w3.org/1999/xlink">
<path d="M18,42L18,46C20.209,46 22,44.209 22,42L18,42ZM18,42L14,42C14,44.209 15.791,46 18,46L18,42ZM18,42L18,38C15.791,38 14,39.791 14,42L18,42ZM18,42L22,42C22,39.791 20.209,38 18,38L18,42Z" fill="#000000"/>
<path d="M40,42L40,46C42.209,46 44,44.209 44,42L40,42ZM40,42L36,42C36,44.209 37.791,46 40,46L40,42ZM40,42L40,38C37.791,38 36,39.791 36,42L40,42ZM40,42L44,42C44,39.791 42.209,38 40,38L40,42Z" fill="#000000"/>
<path d="M2,0C0.895,0 0,0.895 0,2C0,3.105 0.895,4 2,4L2,0ZM10,2L11.961,1.607C11.774,0.673 10.953,0 10,0L10,2ZM15.36,28.78L17.322,28.39L17.321,28.387L15.36,28.78ZM19.36,32L19.36,30C19.347,30 19.334,30 19.322,30L19.36,32ZM38.8,32L38.838,30C38.826,30 38.813,30 38.8,30L38.8,32ZM42.8,28.78L44.762,29.17L44.765,29.155L42.8,28.78ZM46,12L47.965,12.375C48.076,11.789 47.921,11.184 47.541,10.725C47.161,10.266 46.596,10 46,10L46,12ZM12,10C10.895,10 10,10.895 10,12C10,13.105 10.895,14 12,14L12,10ZM2,4L10,4L10,0L2,0L2,4ZM8.039,2.393L13.399,29.173L17.321,28.387L11.961,1.607L8.039,2.393ZM13.398,29.17C13.673,30.551 14.424,31.792 15.521,32.675L18.029,29.559C17.664,29.264 17.413,28.851 17.322,28.39L13.398,29.17ZM15.521,32.675C16.618,33.558 17.99,34.027 19.398,34L19.322,30C18.852,30.009 18.395,29.853 18.029,29.559L15.521,32.675ZM19.36,34L38.8,34L38.8,30L19.36,30L19.36,34ZM38.762,34C40.17,34.027 41.542,33.558 42.639,32.675L40.131,29.559C39.765,29.853 39.308,30.009 38.838,30L38.762,34ZM42.639,32.675C43.736,31.792 44.487,30.551 44.762,29.17L40.838,28.39C40.747,28.851 40.496,29.264 40.131,29.559L42.639,32.675ZM44.765,29.155L47.965,12.375L44.035,11.625L40.835,28.405L44.765,29.155ZM46,10L12,10L12,14L46,14L46,10Z" fill="#000000"/>
</svg>
