<svg width="46" height="42" viewBox="0 0 46 42" fill="none" xmlns="http://www.w3.org/2000/svg" xmlns:xlink="http://www.w3.org/1999/xlink">
<path d="M39.68,5.22L38.265,6.634L38.266,6.635L39.68,5.22ZM31.9,1.997L31.9,3.997L31.9,1.997ZM24.12,5.22L25.534,6.634L25.535,6.634L24.12,5.22ZM22,7.34L20.586,8.754C21.367,9.536 22.633,9.536 23.414,8.754L22,7.34ZM19.88,5.22L18.466,6.634L18.466,6.634L19.88,5.22ZM4.32,20.78L2.906,22.194L2.906,22.194L4.32,20.78ZM6.44,22.9L5.026,24.314L6.44,22.9ZM22,38.46L20.586,39.874C21.367,40.656 22.633,40.656 23.414,39.874L22,38.46ZM39.68,20.78L38.266,19.366L38.266,19.366L39.68,20.78ZM41.095,3.806C39.887,2.599 38.454,1.64 36.876,0.987L35.345,4.682C36.437,5.135 37.43,5.798 38.265,6.634L41.095,3.806ZM36.876,0.987C35.299,0.333 33.608,-0.003 31.9,-0.003L31.9,3.997C33.082,3.997 34.253,4.23 35.345,4.682L36.876,0.987ZM31.9,-0.003C30.192,-0.003 28.501,0.333 26.924,0.987L28.455,4.682C29.547,4.23 30.718,3.997 31.9,3.997L31.9,-0.003ZM26.924,0.987C25.346,1.64 23.913,2.599 22.705,3.806L25.535,6.634C26.37,5.798 27.363,5.135 28.455,4.682L26.924,0.987ZM22.706,3.806L20.586,5.926L23.414,8.754L25.534,6.634L22.706,3.806ZM23.414,5.926L21.294,3.806L18.466,6.634L20.586,8.754L23.414,5.926ZM21.294,3.806C18.856,1.368 15.548,-0.002 12.1,-0.002L12.1,3.998C14.488,3.998 16.777,4.946 18.466,6.634L21.294,3.806ZM12.1,-0.002C8.651,-0.002 5.344,1.368 2.906,3.806L5.734,6.634C7.423,4.946 9.712,3.998 12.1,3.998L12.1,-0.002ZM2.906,3.806C0.467,6.244 -0.903,9.552 -0.903,13L3.097,13C3.097,10.613 4.046,8.323 5.734,6.634L2.906,3.806ZM-0.903,13C-0.903,16.449 0.467,19.756 2.906,22.194L5.734,19.366C4.046,17.678 3.097,15.388 3.097,13L-0.903,13ZM2.906,22.194L5.026,24.314L7.854,21.486L5.734,19.366L2.906,22.194ZM5.026,24.314L20.586,39.874L23.414,37.046L7.854,21.486L5.026,24.314ZM23.414,39.874L38.974,24.314L36.146,21.486L20.586,37.046L23.414,39.874ZM38.974,24.314L41.094,22.194L38.266,19.366L36.146,21.486L38.974,24.314ZM41.094,22.195C42.302,20.988 43.26,19.554 43.913,17.977L40.218,16.445C39.766,17.538 39.102,18.53 38.266,19.366L41.094,22.195ZM43.913,17.977C44.567,16.399 44.904,14.708 44.904,13L40.904,13C40.904,14.182 40.671,15.353 40.218,16.445L43.913,17.977ZM44.904,13C44.904,11.293 44.567,9.602 43.913,8.024L40.218,9.555C40.671,10.647 40.904,11.818 40.904,13L44.904,13ZM43.913,8.024C43.26,6.446 42.302,5.013 41.094,3.806L38.266,6.635C39.102,7.471 39.766,8.463 40.218,9.555L43.913,8.024Z" fill="#000000"/>
</svg>
